HIERARCHY
ROOT hip
{
	OFFSET 0.000000 0.000000 0.000000 
	CHANNELS 6 Xposition Yposition Zposition Xrotation Zrotation Yrotation
	JOINT abdomen
	{
		OFFSET 0.000000 3.402643 0.000000 
		CHANNELS 3 Xrotation Zrotation Yrotation
		JOINT chest
		{
			OFFSET 0.000000 8.438565 -0.680529 
			CHANNELS 3 Xrotation Zrotation Yrotation
			JOINT neck
			{
				OFFSET 0.000000 10.207942 -0.272212 
				CHANNELS 3 Xrotation Zrotation Yrotation
				JOINT head
				{
					OFFSET 0.000000 3.130431 0.000000 
					CHANNELS 3 Xrotation Zrotation Yrotation
					End Site
					{
						OFFSET 0.000000 3.130435 0.000000 
					}
				}
			}
			JOINT lCollar
			{
				OFFSET 3.470700 6.669187 -0.816635 
				CHANNELS 3 Yrotation Zrotation Xrotation
				JOINT lShldr
				{
					OFFSET 3.198488 0.000000 0.000000 
					CHANNELS 3 Zrotation Yrotation Xrotation
					JOINT lForeArm
					{
						OFFSET 10.139888 0.000000 0.000000 
						CHANNELS 3 Yrotation Zrotation Xrotation
						JOINT lHand
						{
							OFFSET 8.370511 0.000000 0.000000 
							CHANNELS 3 Zrotation Yrotation Xrotation
							End Site
							{
								OFFSET 4.083176 0.000000 0.000000 
							}
						}
					}
				}
			}
			JOINT rCollar
			{
				OFFSET -3.470700 6.669187 -0.816635 
				CHANNELS 3 Yrotation Zrotation Xrotation
				JOINT rShldr
				{
					OFFSET -3.198488 0.000000 0.000000 
					CHANNELS 3 Zrotation Yrotation Xrotation
					JOINT rForeArm
					{
						OFFSET -10.139888 0.000000 0.000000 
						CHANNELS 3 Yrotation Zrotation Xrotation
						JOINT rHand
						{
							OFFSET -8.370511 0.000000 0.000000 
							CHANNELS 3 Zrotation Yrotation Xrotation
							End Site
							{
								OFFSET -4.083176 0.000000 0.000000 
							}
						}
					}
				}
			}
		}
	}
	JOINT lThigh
	{
		OFFSET 5.308129 -1.633274 1.361059 
		CHANNELS 3 Xrotation Zrotation Yrotation
		JOINT lShin
		{
			OFFSET -2.041588 -20.007561 0.000000 
			CHANNELS 3 Xrotation Zrotation Yrotation
			JOINT lFoot
			{
				OFFSET 0.000000 -19.190928 -1.224953 
				CHANNELS 3 Xrotation Yrotation Zrotation
				End Site
				{
					OFFSET 0.000000 -2.449906 4.627600 
				}
			}
		}
	}
	JOINT rThigh
	{
		OFFSET -5.308129 -1.633274 1.361059 
		CHANNELS 3 Xrotation Zrotation Yrotation
		JOINT rShin
		{
			OFFSET 2.041588 -20.007561 0.000000 
			CHANNELS 3 Xrotation Zrotation Yrotation
			JOINT rFoot
			{
				OFFSET 0.000000 -19.190928 -1.224953 
				CHANNELS 3 Xrotation Yrotation Zrotation
				End Site
				{
					OFFSET 0.000000 -2.449906 4.627600 
				}
			}
		}
	}
}
MOTION
Frames: 18
Frame Time: 0.016667
0.262592 49.345230 1.175716 -6.112817 3.129247 3.404026 22.140211 -2.138642 -0.303252 -22.912619 -0.908121 0.771542 0.006013 3.583729 -0.684699 16.619114 0.830076 -0.136704 -2.031628 -2.216451 -0.009752 -62.643284 2.356766 -15.153393 -13.774392 1.509374 16.144958 -19.043367 14.768266 -5.038231 9.560667 0.711269 -0.009750 76.459610 -16.663311 -47.746197 20.046728 -3.241306 38.239109 20.748898 -7.985579 -3.023463 0.624313 2.253880 13.529738 18.122828 -1.582955 -1.773844 -16.939526 -23.062834 -19.282921 -0.959212 -18.218754 -33.796211 25.013748 1.292600 2.189227 -9.280126 -15.741593 9.283601 
0.259982 49.347202 1.176871 -6.103631 3.119499 3.403493 22.149977 -2.138642 -0.303252 -22.930704 -0.800709 0.771546 0.039300 3.447047 -0.645127 16.589849 0.878904 -0.126938 -2.031648 -2.333638 -0.009751 -62.626926 2.351849 -15.334980 -13.754672 1.504836 16.060013 -19.055960 14.795101 -5.049966 9.589950 0.623373 -0.009735 76.412010 -16.708677 -47.921021 20.000532 -3.255731 38.406445 20.615505 -7.699268 -2.896778 0.634220 2.273574 13.658492 18.103243 -1.582907 -1.772805 -16.881508 -23.057871 -19.252647 -1.006147 -18.242550 -33.782616 25.091219 1.300075 2.204467 -9.217018 -15.733689 9.306826 
0.260757 49.346767 1.179446 -6.063409 3.138996 3.404028 22.121098 -2.148405 -0.313012 -22.930307 -0.781181 0.761781 0.080180 3.388470 -0.625639 16.560602 0.927732 -0.117172 -1.933980 -2.265296 -0.009752 -62.685448 2.240907 -15.386647 -13.678044 1.486951 15.844332 -18.947872 14.943938 -5.068483 9.648540 0.603832 -0.009730 76.414627 -16.753428 -48.023811 19.988085 -3.257586 38.477135 20.454340 -7.633935 -2.847465 0.614918 2.255714 13.618698 18.084803 -1.573165 -1.760701 -16.903509 -22.997431 -19.234209 -1.006633 -18.231924 -33.791695 25.004330 1.292603 2.179011 -9.228577 -15.733858 9.292326 
0.261532 49.346329 1.182019 -6.023185 3.158493 3.404031 22.082037 -2.148405 -0.313013 -22.929920 -0.761653 0.752016 0.130786 3.329892 -0.606148 16.531185 0.986326 -0.117170 -1.836312 -2.196953 -0.009753 -62.753273 2.127266 -15.438473 -13.592377 1.471130 15.629148 -18.840618 15.102146 -5.089494 9.707128 0.574525 -0.009723 76.417389 -16.798225 -48.129398 19.989151 -3.261238 38.546394 20.303545 -7.577074 -2.804476 0.575790 2.226271 13.578912 18.065214 -1.573138 -1.759667 -16.918383 -22.928871 -19.244944 -1.006987 -18.240898 -33.802147 24.916283 1.302311 2.166732 -9.281013 -15.713082 9.286489 
0.266246 49.348202 1.180815 -5.962268 3.197486 3.404035 22.044363 -2.197227 -0.342295 -22.939175 -0.732360 0.742127 0.141629 3.281072 -0.596403 16.482317 1.005857 -0.117169 -1.816774 -2.157894 -0.009754 -62.823193 2.094232 -15.636751 -13.559496 1.472702 15.707814 -18.842325 15.120630 -5.095581 9.736423 0.564755 -0.009721 76.361450 -16.806704 -48.198433 19.969927 -3.265690 38.628822 20.326408 -7.640222 -2.830593 0.555383 2.139765 13.534022 17.986485 -1.573212 -1.765289 -16.878824 -22.850815 -19.200161 -0.996806 -18.270538 -33.815186 24.759453 1.312131 2.160670 -9.296232 -15.740999 9.283675 
0.270961 49.350075 1.179613 -5.900770 3.246228 3.404038 21.996593 -2.246049 -0.361816 -22.948689 -0.712831 0.742130 0.162221 3.232253 -0.586657 16.433605 1.035154 -0.107404 -1.787470 -2.118836 -0.009754 -62.893250 2.060784 -15.834586 -13.526399 1.476649 15.777002 -18.844034 15.139116 -5.101668 9.765719 0.554984 -0.009718 76.312546 -16.808079 -48.270317 19.956871 -3.277817 38.711830 20.349304 -7.703351 -2.856750 0.535929 2.064251 13.470334 17.917059 -1.583457 -1.763104 -16.867813 -22.792040 -19.164320 -0.997649 -18.268888 -33.834721 24.583900 1.312149 2.141933 -9.297008 -15.755795 9.284883 
0.273497 49.351810 1.181543 -5.878379 3.275407 3.424096 21.978279 -2.255807 -0.391091 -22.909504 -0.732365 0.712832 0.121952 3.242006 -0.606157 16.423508 1.025388 -0.126933 -1.806992 -2.060239 -0.009754 -62.898407 2.070917 -15.795405 -13.567404 1.466727 15.592436 -18.818941 15.197181 -5.114806 9.795017 0.564745 -0.009719 76.277725 -16.733639 -48.412834 19.930578 -3.281420 38.775402 20.497866 -7.714321 -2.883153 0.526380 2.046810 13.430186 17.858685 -1.582786 -1.750165 -16.843662 -22.758986 -19.147642 -1.028591 -18.304827 -33.833931 24.642651 1.302410 2.152737 -9.297314 -15.752592 9.275611 
0.276034 49.353546 1.183475 -5.855968 3.304584 3.443599 21.959974 -2.265564 -0.420366 -22.870548 -0.761663 0.693298 0.072018 3.241995 -0.625657 16.413395 1.025387 -0.146461 -1.816749 -2.011409 -0.009755 -62.914230 2.082832 -15.765551 -13.608618 1.457080 15.407930 -18.793848 15.255261 -5.125332 9.824313 0.564740 -0.009718 76.242676 -16.668980 -48.556026 19.890306 -3.286706 38.831818 20.644726 -7.719509 -2.898473 0.527111 2.010080 13.397938 17.780645 -1.582899 -1.736326 -16.840815 -22.734877 -19.145189 -1.055329 -18.368261 -33.844952 24.710238 1.312064 2.167867 -9.312028 -15.740449 9.281245 
0.276399 49.353016 1.187375 -5.837586 3.294870 3.433848 21.940756 -2.255796 -0.430123 -22.851234 -0.790959 0.683529 0.069799 3.290801 -0.654900 16.315165 0.986323 -0.185519 -1.875340 -1.991868 -0.009755 -62.863537 2.029657 -16.141928 -13.472725 1.452717 15.377677 -18.851753 15.222292 -5.131617 9.834087 0.613567 -0.009726 76.155655 -16.512159 -48.752354 19.767696 -3.284964 38.850666 20.613340 -7.684427 -2.879597 0.516661 2.027762 13.527427 17.809687 -1.582908 -1.747604 -16.738461 -22.885338 -19.138237 -1.055335 -18.368259 -33.844948 24.710238 1.312065 2.167867 -9.381940 -15.699039 9.261138 
0.276765 49.352489 1.191273 -5.819762 3.285188 3.414348 21.921993 -2.255790 -0.449639 -22.822262 -0.830021 0.673757 0.067413 3.349371 -0.684708 16.217152 0.947259 -0.214814 -1.924166 -1.982094 -0.009754 -62.823494 1.965908 -16.523094 -13.349044 1.452782 15.356207 -18.899570 15.190201 -5.135283 9.843863 0.672159 -0.009736 76.070465 -16.346720 -48.951553 19.631039 -3.284882 38.861622 20.583193 -7.645895 -2.871129 0.506558 2.024189 13.674938 17.828423 -1.593065 -1.750033 -16.640905 -23.021118 -19.122372 -1.065524 -18.338591 -33.831924 24.701284 1.302470 2.155751 -9.467148 -15.647152 9.254252 
0.280484 49.355408 1.200428 -5.809976 3.294970 3.404600 21.883316 -2.255787 -0.459398 -22.754215 -0.869082 0.664134 0.045101 3.388402 -0.723702 16.080091 0.878898 -0.253876 -1.953453 -1.923496 -0.009754 -62.782177 1.834074 -16.839981 -13.194118 1.440279 15.250288 -18.856924 15.277743 -5.149877 9.834100 0.681926 -0.009738 76.004654 -16.050859 -49.322399 19.464390 -3.276186 38.727829 20.588434 -7.553988 -2.838378 0.535580 2.013754 13.721940 17.779789 -1.593005 -1.737713 -16.599672 -23.057323 -19.095556 -0.960643 -18.294699 -33.831135 24.427174 1.312171 2.143640 -9.480771 -15.704613 9.247785 
0.284206 49.358315 1.209584 -5.790992 3.304785 3.385103 21.834871 -2.255784 -0.469156 -22.676500 -0.917909 0.654369 0.023193 3.437204 -0.752942 15.952975 0.820302 -0.283174 -1.972976 -1.874664 -0.009755 -62.752029 1.704392 -17.166222 -13.051220 1.434074 15.143318 -18.804205 15.366198 -5.164320 9.814571 0.701460 -0.009742 75.935303 -15.754580 -49.696220 19.297853 -3.266731 38.593693 20.594181 -7.471232 -2.807729 0.564604 2.012893 13.769652 17.729261 -1.602827 -1.755915 -16.553770 -23.051754 -19.082077 -0.851463 -18.259125 -33.830929 24.143135 1.331659 2.123160 -9.488516 -15.751340 9.234756 
0.291464 49.359108 1.219391 -5.780632 3.334098 3.365609 21.787539 -2.294835 -0.498821 -22.568546 -0.898382 0.634841 -0.084164 3.388372 -0.762696 15.806314 0.800770 -0.302705 -1.865554 -1.874682 -0.009755 -62.724216 1.407417 -17.434668 -12.821353 1.411496 14.896857 -18.584000 15.403945 -5.113354 9.795034 0.662401 -0.009736 75.923851 -15.466398 -49.972923 19.392294 -3.246456 38.428349 20.653658 -7.477496 -2.818761 0.585542 1.980679 13.943056 17.671656 -1.593002 -1.741764 -16.498360 -23.218569 -19.115768 -0.989262 -18.364178 -33.783566 24.358286 1.321894 2.142027 -9.331852 -15.774101 9.262903 
0.298722 49.359894 1.229198 -5.761099 3.363445 3.336367 21.740152 -2.324121 -0.528098 -22.450949 -0.888621 0.615160 -0.181739 3.339540 -0.772450 15.659667 0.781238 -0.322236 -1.748366 -1.874702 -0.009756 -62.705063 1.107786 -17.703615 -12.582711 1.387271 14.660103 -18.351915 15.454723 -5.051013 9.765731 0.623344 -0.009730 75.913651 -15.169246 -50.252010 19.485613 -3.240223 38.266071 20.723433 -7.492396 -2.835780 0.624169 1.940577 14.115038 17.604122 -1.592949 -1.708950 -16.460028 -23.415005 -19.150463 -1.127415 -18.458818 -33.735218 24.573772 1.312134 2.151147 -9.175850 -15.834625 9.284287 
0.308277 49.361370 1.248651 -5.868636 3.431925 3.268139 21.790335 -2.382704 -0.547620 -22.255533 -0.878856 0.615162 -0.317628 3.320019 -0.762702 15.405845 0.722643 -0.341770 -1.670243 -1.884481 -0.009756 -62.611141 0.716586 -17.887318 -12.207447 1.311347 13.728291 -18.189615 15.428266 -5.003949 9.746201 0.633112 -0.009732 75.895897 -14.788318 -50.225864 19.718437 -3.184851 37.455864 20.775522 -7.929251 -3.006944 0.809792 1.871652 14.130572 17.514879 -1.592952 -1.733498 -16.438974 -23.380150 -19.136147 -1.029389 -18.538231 -33.663544 24.544809 1.312120 2.139922 -9.095091 -15.855736 9.304140 
0.317833 49.362850 1.268100 -5.976285 3.490625 3.209662 21.840971 -2.441283 -0.576897 -22.050200 -0.869092 0.605399 -0.443757 3.300497 -0.752955 15.152175 0.664050 -0.351539 -1.592120 -1.894260 -0.009757 -62.517315 0.321801 -18.085302 -11.821415 1.235440 12.804377 -18.035715 15.413138 -4.953623 9.726671 0.642881 -0.009734 75.876976 -14.416862 -50.197819 19.944267 -3.123880 36.637314 20.828989 -8.365864 -3.178672 1.003980 1.811111 14.136345 17.425852 -1.602550 -1.730120 -16.432640 -23.372965 -19.129053 -0.911629 -18.627357 -33.614609 24.505594 1.321877 2.130113 -9.024807 -15.880316 9.321491 
0.323005 49.365162 1.279380 -6.077172 3.529926 3.121344 21.900482 -2.490104 -0.586657 -21.884544 -0.888621 0.615160 -0.580801 3.368857 -0.743200 14.879530 0.566397 -0.332015 -1.553042 -1.806376 -0.009757 -62.544815 -0.188689 -18.758114 -11.299299 1.127599 11.422361 -17.950686 15.598076 -4.987946 9.677844 0.642890 -0.009736 75.861084 -13.822671 -50.071747 20.057724 -3.034009 35.364761 20.703407 -8.592670 -3.243597 1.160895 1.784318 14.352703 17.337994 -1.602623 -1.715747 -16.369024 -23.521664 -19.153236 -0.900766 -18.687412 -33.511826 24.593315 1.312167 2.152156 -8.958539 -15.861747 9.349333 
0.328177 49.367477 1.290659 -6.169538 3.559505 3.023878 21.969673 -2.529160 -0.596416 -21.709021 -0.898384 0.625076 -0.727125 3.446991 -0.723697 14.606684 0.478508 -0.322254 -1.504201 -1.728259 -0.009758 -62.571178 -0.708191 -19.434723 -10.772201 1.006593 10.045860 -17.876654 15.791592 -5.024626 9.619246 0.633134 -0.009736 75.850838 -13.221074 -49.946068 20.184395 -2.953627 34.087143 20.578009 -8.819807 -3.306076 1.315065 1.740690 14.567817 17.259949 -1.602500 -1.701865 -16.278231 -23.671644 -19.143602 -0.869799 -18.759315 -33.412231 24.681381 1.302469 2.164468 -8.887654 -15.840816 9.355724 
